<svg height="458" width="461" xmlns="http://www.w3.org/2000/svg"><path d="M0 0v458h461V0H0z" style="fill:#010202;stroke:none"/><path d="M121 155c-9.175.4-18.344 3.451-27 6.333-17.069 5.685-33.978 12.83-46.996 25.682-10.06 9.932-16.877 24.847-11.536 38.985 2.103 5.569 4.925 11.205 8.456 16 4.962 6.736 11.474 12.998 18.076 18.112 21.453 16.616 47.051 27.359 73 34.603 8.944 2.496 17.843 4.941 27 6.535 4.651.81 11.876 1.227 15.61 4.339 3.289 2.74 5.195 7.824 7.44 11.411 4.689 7.491 9.509 14.817 14.66 22 5.027 7.01 10.302 14.324 15.959 20.83 4.516 5.195 9.444 10.313 14.332 15.166 4.114 4.085 8.543 7.862 12.999 11.569 21.162 17.605 60.505 39.736 82.319 11.435 3.246-4.211 5.692-9.058 7.619-14 4.06-10.412 5.197-21.036 6.638-32 2.009-15.3-1.377-30.805-2.576-46 14.681-1.865 29.373-7.071 43-12.731 9.934-4.126 19.797-9.546 28-16.569 4.311-3.691 8.36-7.924 11.452-12.7 11.832-18.277 3.585-38.757-10.467-52.996-24.176-24.498-57.167-35.194-88.985-45.348-8.562-2.733-17.189-4.923-26-6.657-3.791-.746-9.383-.888-12.366-3.588-3.146-2.848-5.067-7.842-7.315-11.411-4.71-7.477-9.619-14.746-14.663-22C241.728 96.214 217.619 67.588 188 55.015 168.693 46.819 147.631 44.7 133.529 63c-3.207 4.163-5.539 9.152-7.514 14-4.053 9.944-5.481 20.428-6.73 31-1.858 15.739 1.044 31.368 1.715 47z" style="fill:#01f991;stroke:none"/><path d="M138 152c15.478-2.873 31.321-2.817 47-3.004 8.033-.095 15.904-1.311 24-.957 16.648.729 33.466 2.871 50 4.961-2.966-8.1-8.843-14.931-13.656-22-13.459-19.768-29.868-37.844-49.344-51.845-9.369-6.735-22.969-14.623-35-14.011-10.609.54-16.82 10.987-20.046 19.856-4.967 13.653-4.954 27.691-4.954 42 0 8.157-.324 17.139 2 25m3 16c1.056 7.84 3.909 15.385 5.989 23 6.366 23.304 15.622 45.043 25.702 67 3.399 7.403 6.736 14.826 10.618 22 1.523 2.815 3.156 6.862 6.081 8.486 2.767 1.537 6.55 1.464 9.61 1.938 7.66 1.188 15.307 1.811 23 2.731 22.894 2.74 46.932 2.816 70 1.806 8.377-.367 16.582-1.96 25-1.961-4.098-32.254-17.24-61.701-30.691-91-3.407-7.42-6.704-14.884-10.733-22-1.528-2.698-3.018-6.174-5.789-7.822-3.215-1.912-8.153-1.803-11.787-2.308-8.96-1.246-17.968-2.47-27-2.909-18.395-.894-36.598-1.621-55-1.621-11.705 0-23.323 2.563-35 2.66m26 117c-7.791-21.409-19.488-41.658-27.545-63-6.278-16.63-9.214-34.458-15.455-51-11.522 2.377-23.073 5.048-34 9.495-7.35 2.991-14.356 6.105-21 10.509-3.989 2.644-7.645 5.53-10.957 9-15.136 15.86-1.558 33.336 11.96 44.711C96.939 267.376 132.987 278.591 167 285m126-109c3.19 11.073 9.653 21.476 14.326 32 7.059 15.898 12.81 32.392 18.014 49 2.275 7.261 4.362 14.612 6.185 22 .649 2.627.779 7.213 3.203 8.933 1.75 1.242 4.374.449 6.273.052 5.044-1.055 10.08-2.437 14.999-3.961 15.219-4.716 31.326-10.809 42.996-22.064 4.999-4.821 10.397-11.523 9.663-18.96-1.288-13.036-14.756-24.001-24.659-30.964-26.819-18.857-59.175-29.471-91-36.036z" style="fill:#010202;stroke:none"/><path d="M224 195.465c-5.286.951-10.703 2.788-15 6.067-28.614 21.834-9.1 69.423 27 63.139 4.423-.77 9.174-2.835 13-5.15 32.176-19.468 11.157-70.564-25-64.056z" style="fill:#01f991;stroke:none"/><path d="M200 308c5.019 11.633 13.899 22.137 21.715 32 13.597 17.16 29.028 34.11 48.285 45.127 10.75 6.15 28.736 14.879 39.896 4.648 5.584-5.119 7.711-12.749 9.658-19.775 5.688-20.527 1.46-40.274 1.446-61-23.732 1.019-47.104 4.007-71 2.961-16.629-.729-33.377-3.95-50-3.961z" style="fill:#010202;stroke:none"/></svg>